<svg id="Layer_1" data-name="Layer 1" xmlns="http://www.w3.org/2000/svg" viewBox="0 0 249.49 147.35"><defs><style>.cls-1{fill:none;}.cls-2,.cls-3{fill:#185df9;}.cls-3{font-size:67.43px;font-family:RoadCrew-Regular, Road Crew;}</style></defs><rect class="cls-1" x="-353.38" y="-818.17" width="1117" height="1490"/><rect class="cls-1" x="-353.38" y="-818.17" width="1117" height="1490"/><path class="cls-2" d="M39.79,94.85c-4.66,8.67-9.64,12.9-14.69,14-3.41.75-6.36-1.3-6.43-5.26,0-2,2.43-9.55,5.18-17.36l-4.32,1c-2.37.56-2.17-2.86.06-3.39l5.57-1.34c2.56-7.22,5.12-13.9,5.9-15.78,1.64-3.9,4.33-2.45,3,1.12-.53,1.4-2.76,7.26-5.18,13.78l7.86-1.89c2.63-.49,2.69,2.73-.19,3.42l-9,2.17c-2.69,7.52-5.31,15.1-5.44,17.22-.13,1.45,1.11,3.1,3.6,2.57,4.79-1.08,8.26-5.55,11.15-11.1C37.88,92,40.7,93.21,39.79,94.85Z"/><path class="cls-2" d="M42.66,98.41c0-2.63,1.12-6.34,3.74-11a2.51,2.51,0,0,0,.4-1.1c0-.81-1.32-.9-3.09-1.15a57.74,57.74,0,0,1-4,9.86,2,2,0,0,1-1.24,1c-1.12.27-2.3-.66-1.77-1.73a53.76,53.76,0,0,0,3.93-9.64c-3.41-1.27-1.38-6.08,1.77-6.83,2.76-.66,3.22,2.06,2.56,3.9.79.49,2.95.57,5.11,1.34,1,.37,1.45.93,1.45,1.67a4.93,4.93,0,0,1-1.38,2.9c-3,4.36-4.26,7.63-4.26,9.72s1.24,3.07,3.21,2.6c2.82-.68,6.82-3.32,10.69-11.2a2.42,2.42,0,0,1,1.31-1.19c1.44-.35,2.29.8,1.83,1.72C58,99,52.7,102.2,48.57,103.19,45.09,104,42.66,102.39,42.66,98.41Z"/><path class="cls-2" d="M72.35,75.1c2.56-.61,4.72-.12,5.38,1.2a4.23,4.23,0,0,1,1.11-1.75c1.18-.89,3.54-.1,2.75,1.84-.26,1-8.59,15.48-5,16.65,2.49.82,8-5.49,10.68-11,.92-1.91,3.74-.9,3.08.67-4.78,8.64-9.57,12.82-14.09,13.91-2,.47-4.79-.47-3.94-4.39-2,2.83-5.83,6.73-9.31,7.56C52.68,102.27,61,77.82,72.35,75.1Zm3.08,4.66a2.08,2.08,0,0,0-2.56-1.82C65,80.23,59,97.17,63,96.23S76,84.27,75.43,79.76Z"/><path class="cls-2" d="M113,77.29c-3.74,6.9-7.48,11.5-12.79,11a16.68,16.68,0,0,1-7.6,4.26c-7.28,1.74-6.17-7.63.59-9.25a8.86,8.86,0,0,1,6.42,1.22,6.6,6.6,0,0,0,1-2.79c.72-5-3.94-5.26-6.69-9.19A49.23,49.23,0,0,1,90.21,83a2,2,0,0,1-1.25,1c-1.12.27-2.3-.66-1.77-1.73a36.79,36.79,0,0,0,3.67-10.52c.39-2.25,1.64-3.36,3-3.68s2.69,0,2.56,2.09c2.69,4.07,8.19,5.11,7.47,11.08a11.7,11.7,0,0,1-1.24,3.94c3.34-.94,6-6.17,7.21-8.34a2.18,2.18,0,0,1,1.38-1.2C112.3,75.29,113.55,76.2,113,77.29ZM97.35,87.37a5.31,5.31,0,0,0-4.13-1.3c-3.21.77-3.47,4.27-.33,3.52A13,13,0,0,0,97.35,87.37Z"/><path class="cls-2" d="M136.56,71.63c-3.74,7.37-9.51,12.86-13.12,13.73a3.63,3.63,0,0,1-4.72-3.79c0-4.38,3.94-10.72,3.94-13.28,0-1.08-.59-1.55-2.3-1.07-4.78,1.28-7.67,11-11.14,20.61-.33,1-.72,1.38-1.31,1.53a1.62,1.62,0,0,1-2-1.55,2.24,2.24,0,0,1,.13-.71c2.43-6.58,4.92-13.45,7.21-19.8,1.38-3.64,2.62-7.24,3.94-10.52-14.63,1.35-33.9-3.19-42.29,6.24-1.38,1.54-3.28-.16-1.12-2.64,8.39-9.63,30-4.77,44.59-6.51,3.41-8.1,6.88-14.13,11.21-15.24,3.74-1,6.56,2,5.31,6.35-2.1,7.31-7.54,10.31-14.56,11.45-.72,2-1.5,4.07-2.23,6.27-.32.95-.78,2.14-1.18,3.18a10.8,10.8,0,0,1,4.46-2.42c3.67-.88,4.92.37,4.92,2.6,0,4.24-4.26,11.81-4.26,14.84,0,1.28.92,1.4,1.77,1.19,2.88-.69,6.88-6.1,9.64-11.14C134.46,69,137.35,69.75,136.56,71.63Zm-15-18.33c5.18-1.11,9-3.45,10.42-8.23.59-2-.52-3.86-2.23-3.45C126.85,42.33,124.17,47,121.61,53.3Z"/><path class="cls-2" d="M172.43,61.45c-4.65,8.67-9.64,12.9-14.68,14-3.41.75-6.36-1.31-6.43-5.27,0-2,2.43-9.55,5.18-17.36l-4.33,1c-2.36.57-2.16-2.85.07-3.39l5.57-1.33c2.56-7.22,5.12-13.91,5.9-15.78,1.64-3.9,4.33-2.46,2.95,1.11-.52,1.41-2.75,7.27-5.18,13.79l7.87-1.89c2.62-.5,2.69,2.72-.2,3.42l-9,2.17c-2.69,7.52-5.31,15.09-5.45,17.22-.13,1.44,1.12,3.1,3.61,2.57,4.79-1.08,8.26-5.56,11.15-11.1C170.53,58.6,173.35,59.81,172.43,61.45Z"/><path class="cls-2" d="M181.93,47.23c2.56-.61,4.72-.12,5.38,1.21a4.1,4.1,0,0,1,1.11-1.75c1.18-.89,3.54-.11,2.75,1.83-.26,1-8.58,15.48-5,16.65,2.49.82,8-5.49,10.68-11,.92-1.91,3.74-.9,3.09.68-4.79,8.63-9.58,12.81-14.1,13.9-2,.47-4.79-.47-3.94-4.38-2,2.83-5.83,6.72-9.31,7.56C162.26,74.41,170.59,50,181.93,47.23ZM185,51.89a2.09,2.09,0,0,0-2.56-1.82c-7.86,2.3-13.83,19.24-9.9,18.29S185.6,56.4,185,51.89Z"/><path class="cls-2" d="M195.76,59.56c-.07-3.9,10.68-32.71,12.39-36.83,1.64-3.9,4.33-2.45,2.95,1.12-1.25,3.26-11.67,30.38-12,34.7-.13,1.45,1.11,3.11,3.61,2.58C207.49,60,211,55.57,213.85,50c1.12-2.09,3.94-.87,3,.76-4.66,8.67-9.64,12.9-14.69,14C198.77,65.58,195.82,63.52,195.76,59.56Z"/><path class="cls-2" d="M240.62,45.08c-4.26,8.51-9,12.69-14,13.89-4.13,1-7.27-2.24-6.29-7.33-1.71-1.14,1.9-5.58,3.15-3.25v.07c7.34-1.42,8.32-10.29,3.41-9.11-6.76,1.62-9.77,10.17-13.18,21.3-.46,1.32-.92,2-1.84,2.19s-1.77,0-1.77-.79a1.54,1.54,0,0,1,.07-.55c1.24-4.08,7.21-23,15.08-42.66,1.37-3.43,4.65-2.67,3.41.13-1.77,4-5,12.72-8.4,21.5a12.8,12.8,0,0,1,6.49-4.12c9.45-2.27,8.2,12.19-3.14,14.91l-.46.11c-.07,3.39,1.11,5.13,3.74,4.5,4.65-1.12,7.86-5.8,10.75-11.55C238.72,42.17,241.21,43.66,240.62,45.08Z"/><path class="cls-2" d="M92.07,113.11a9.28,9.28,0,0,1-7.39,9.1l-5.42,1.3V108.9l5.42-1.3C89.12,106.54,92.07,108.75,92.07,113.11Zm-1.62.41c0-3.53-2.27-5.32-5.77-4.48l-3.85.93V121.7l3.85-.93A7.31,7.31,0,0,0,90.45,113.52Z"/><path class="cls-2" d="M100.63,103.78v14.6l-1.57.38V104.15Z"/><path class="cls-2" d="M121.12,113.31l-.07.13A2.47,2.47,0,0,1,120,114a1.57,1.57,0,0,1-1.25-.17,3.15,3.15,0,0,1-1-1.35l-.63-1.37-7.06,1.69-1.35,3.63-1.62.39,6.12-16.08.87-.21,5.12,11.09c.3.67.45,1,.94.88a1.14,1.14,0,0,0,.48-.28l.1,0Zm-4.57-3.49-2.91-6.45-3,7.86Z"/><path class="cls-2" d="M138.2,109.21l-.07.13a3,3,0,0,1-1.33.63c-2.29.55-3-1.75-3.76-3.54-.33-.78-.92-1.78-1.66-1.61l-2.64.64v6.18l-1.58.38V97.41l5.12-1.23c3.27-.79,5,.37,5,3,0,2.27-1.29,4.07-3.78,5,.61.1,1.05,1.09,1.31,1.77.59,1.48,1.14,2.72,2.25,2.45a1.77,1.77,0,0,0,.66-.32l.11,0Zm-5.51-6.09a3.64,3.64,0,0,0,3-3.53c0-1.62-1.07-2.53-3-2.07l-3.95,1v5.6Z"/><path class="cls-2" d="M146.34,92.81v14.61l-1.58.37V93.18Z"/><path class="cls-2" d="M155.92,91.94V97L162,95.57V97l-6.06,1.45v5.22l7.65-1.84v1.44l-9.22,2.21V90.88l9.22-2.21v1.44Z"/><path class="cls-2" d="M169.19,99.59v-.11l.94-1.24.11,0a4.08,4.08,0,0,0,4.17,1.24c2-.47,3.26-1.86,3.26-3.3,0-1.86-2.12-1.94-4.41-2.33-1.47-.26-3.46-.7-3.46-3s1.88-4.37,4.55-5A4.47,4.47,0,0,1,178.92,87v.12l-1,1.18-.11,0a3.43,3.43,0,0,0-3.47-1c-1.66.4-2.93,1.62-2.93,3s1.25,1.66,2.75,1.9c2.28.38,5.12.59,5.12,3.54,0,2.47-2,4.55-4.79,5.22A5.26,5.26,0,0,1,169.19,99.59Z"/><text class="cls-3" transform="matrix(0.97, -0.23, 0, 1, 15.37, -41.89)">t</text><text class="cls-3" transform="matrix(0.97, -0.23, 0, 1, 32.35, -45.97)">r</text><text class="cls-3" transform="matrix(0.97, -0.23, 0, 1, 55.41, -51.5)">a</text><text class="cls-3" transform="matrix(0.97, -0.23, 0, 1, 82.84, -58.09)">s</text><text class="cls-3" transform="matrix(0.97, -0.23, 0, 1, 105.46, -63.51)">h</text><text class="cls-3" transform="matrix(0.97, -0.23, 0, 1, 148.02, -75.3)">t</text><text class="cls-3" transform="matrix(0.97, -0.23, 0, 1, 164.99, -79.37)">a</text><text class="cls-3" transform="matrix(0.97, -0.23, 0, 1, 192.39, -85.95)">l</text><text class="cls-3" transform="matrix(0.97, -0.23, 0, 1, 209.39, -90.03)">k</text></svg>